:SAMPLES-PER-SECOND 30
:FULLY-SPECIFIED
:DEGREES
435
root  2.85747 39.3102 12.4688 159.901 73.1329 162.915
RightUpLeg  -12.1034 -6.77202 -9.66175
RightLeg  13.3315 -2.82487 -1.96843
RightFoot  3.89377 -1.358 10.3277
RightToes  -5.8209e-011 0 -3.6325e-017
Spine  1.26466 -5.57566 -8.50412
Spine1  21.9028 -10.6153 11.4032
HEad  -24.7641 -7.42542 -6.45928
LeftShoulder1  1.80659 -3.65639 -18.6837
LeftArm  18.1823 4.632 -62.9263
LeftForeArm  8.66054 -66.6752 -26.8084
LeftHand  -1.60035 -2.24366 24.2654
RightShoulder  0.79312 -0.146747 17.1009
RightArm  -28.8561 -11.2109 51.254
RightForeArm  20.8794 15.1719 6.68654
RightHand  -0.314587 3.43199 -4.38891
LeftUpLeg  9.32784 -5.81687 -0.461767
LeftLeg  20.7073 -1.43874 -0.269949
LeftFoot  -7.06336 0.425207 -10.2364
LeftToes  6.82088e-011 -2.45093e-011 5.71991e-013
436
root  3.22974 39.3924 12.6081 160.875 72.4523 162.817
RightUpLeg  -12.5753 -7.45811 -9.55519
RightLeg  13.4201 -2.81338 -1.84284
RightFoot  3.30075 -1.23882 9.79799
RightToes  -5.8209e-011 0 -3.6325e-017
Spine  0.930739 -5.24843 -6.96064
Spine1  21.4589 -9.86294 10.7906
HEad  -24.7318 -8.16968 -6.5474
LeftShoulder1  1.82764 -3.79777 -18.4678
LeftArm  17.5303 4.56867 -63.0693
LeftForeArm  10.1714 -67.0335 -27.1645
LeftHand  -1.62105 -2.24641 24.5655
RightShoulder  0.773131 -0.129527 16.321
RightArm  -22.5014 -8.13432 50.6461
RightForeArm  14.1712 19.0064 5.58534
RightHand  -0.353589 3.62468 -4.80729
LeftUpLeg  8.43675 -5.63657 0.201807
LeftLeg  20.5387 -2.85845 -0.855484
LeftFoot  -5.52843 0.592992 -11.0037
LeftToes  6.82088e-011 -2.45093e-011 5.71991e-013
437
root  3.51555 39.4487 12.7517 161.366 71.5537 162.28
RightUpLeg  -13.0741 -7.64823 -9.65575
RightLeg  13.5141 -3.46048 -2.06783
RightFoot  3.10592 -1.17779 9.4409
RightToes  -5.8209e-011 0 -3.6325e-017
Spine  1.11478 -5.03625 -6.19294
Spine1  20.6724 -9.45593 10.6644
HEad  -25.0239 -8.63963 -6.52791
LeftShoulder1  1.88218 -4.05423 -18.3319
LeftArm  16.2398 4.56534 -62.9303
LeftForeArm  8.08246 -67.0425 -27.4703
LeftHand  -1.58179 -1.9113 25.0457
RightShoulder  0.764004 -0.0449733 15.4063
RightArm  -18.6681 -4.90867 49.9853
RightForeArm  10.2321 22.8913 4.59632
RightHand  -0.375707 3.70284 -5.05266
LeftUpLeg  7.51653 -6.13215 0.337391
LeftLeg  20.3645 -3.49648 -1.10813
LeftFoot  -4.21782 0.75316 -11.6674
LeftToes  6.82088e-011 -2.45093e-011 5.71991e-013
438
root  3.73213 39.4958 12.8938 161.399 70.7124 161.652
RightUpLeg  -13.3647 -7.63738 -9.83394
RightLeg  13.6963 -4.29567 -2.43014
RightFoot  2.80002 -1.14224 9.34408
RightToes  -5.8209e-011 0 -3.6325e-017
Spine  1.66105 -4.87335 -5.56644
Spine1  20.0563 -9.10196 10.3867
HEad  -25.4208 -8.94882 -6.21516
LeftShoulder1  1.93546 -4.36532 -18.0013
LeftArm  14.759 4.34535 -62.6038
LeftForeArm  5.30218 -66.7313 -27.352
LeftHand  -1.49514 -1.526 24.9848
RightShoulder  0.741459 -0.0422787 14.6663
RightArm  -18.8981 -1.74988 49.1801
RightForeArm  10.7269 26.9609 5.19704
RightHand  -0.437589 3.78669 -5.78961
LeftUpLeg  7.10086 -7.0102 0.138111
LeftLeg  19.9239 -3.36817 -1.0267
LeftFoot  -3.17282 0.883809 -12.0806
LeftToes  6.82088e-011 -2.45093e-011 5.71991e-013
439
root  3.90726 39.5484 13.0245 161.394 70.0252 161.254
RightUpLeg  -13.4139 -7.89606 -9.96902
RightLeg  13.7507 -4.68641 -2.5188
RightFoot  2.38203 -1.08741 9.15344
RightToes  -5.8209e-011 0 -3.6325e-017
Spine  2.21923 -4.72953 -4.82722
Spine1  19.7504 -8.73554 9.9055
HEad  -25.6167 -9.16104 -5.92364
LeftShoulder1  1.97052 -4.6508 -17.5348
LeftArm  13.4587 4.00057 -62.1986
LeftForeArm  3.78728 -66.2431 -26.7938
LeftHand  -1.39142 -1.21921 24.3486
RightShoulder  0.701416 -0.134766 14.0051
RightArm  -19.6258 1.00167 48.5089
RightForeArm  11.8829 31.6385 6.28999
RightHand  -0.558816 4.11126 -7.08591
LeftUpLeg  7.08403 -7.58837 -0.0152165
LeftLeg  19.2327 -3.03178 -0.849719
LeftFoot  -2.30492 0.987035 -12.2809
LeftToes  6.82088e-011 -2.45093e-011 5.71991e-013
440
root  4.06003 39.6033 13.1412 161.664 69.3249 161.098
RightUpLeg  -13.3349 -8.46793 -10.0894
RightLeg  13.455 -4.78095 -2.35061
RightFoot  2.21376 -1.03178 8.79333
RightToes  -5.8209e-011 0 -3.6325e-017
Spine  2.55566 -4.64754 -4.20364
Spine1  19.5301 -8.49829 9.57354
HEad  -25.5692 -9.34199 -5.87184
LeftShoulder1  1.99621 -4.87625 -17.1629
LeftArm  12.5536 3.84896 -61.7165
LeftForeArm  3.5711 -65.9241 -26.3463
LeftHand  -1.3117 -1.06363 23.5338
RightShoulder  0.661345 -0.218998 13.2475
RightArm  -20.3146 3.07073 48.0541
RightForeArm  13.2051 36.6914 7.56709
RightHand  -0.708091 4.63502 -8.47254
LeftUpLeg  7.01092 -7.45787 0.081639
LeftLeg  18.49 -2.96069 -0.778926
LeftFoot  -1.51153 1.08889 -12.5181
LeftToes  6.82088e-011 -2.45093e-011 5.71991e-013
441
root  4.1905 39.6538 13.2478 162.342 68.5239 161.208
RightUpLeg  -13.3102 -8.97862 -10.1898
RightLeg  12.9726 -5.12045 -2.22767
RightFoot  2.16659 -1.00976 8.63618
RightToes  -5.8209e-011 0 -3.6325e-017
Spine  2.61456 -4.65505 -3.76861
Spine1  19.3122 -8.44524 9.4934
HEad  -25.5009 -9.51977 -5.83736
LeftShoulder1  2.0155 -5.04278 -16.9047
LeftArm  12.0579 3.9526 -61.2373
LeftForeArm  3.742 -65.8935 -26.281
LeftHand  -1.27733 -1.05101 22.9784
RightShoulder  0.631689 -0.260261 12.5151
RightArm  -21.0225 4.57557 47.7552
RightForeArm  14.6275 41.5821 8.98254
RightHand  -0.836464 5.04206 -9.58683
LeftUpLeg  6.7148 -6.91123 0.39086
LeftLeg  17.7683 -3.10433 -0.789636
LeftFoot  -0.810441 1.1982 -12.9063
LeftToes  6.82088e-011 -2.45093e-011 5.71991e-013
442
root  4.2946 39.6997 13.3502 163.2 67.791 161.494
RightUpLeg  -13.3999 -9.19635 -10.1891
RightLeg  12.5746 -5.70914 -2.25642
RightFoot  1.9241 -1.00969 8.78029
RightToes  -5.8209e-011 0 -3.6325e-017
Spine  2.53631 -4.67646 -3.38233
Spine1  19.1598 -8.42737 9.45397
HEad  -25.5467 -9.6438 -5.57598
LeftShoulder1  2.02265 -5.14995 -16.6773
LeftArm  11.9026 4.12416 -60.898
LeftForeArm  3.72437 -65.9389 -26.3494
LeftHand  -1.26641 -1.04593 22.8042
RightShoulder  0.610697 -0.305274 12.0899
RightArm  -21.6506 5.75903 47.5355
RightForeArm  15.6049 45.9194 10.4741
RightHand  -0.923455 5.1936 -10.4035
LeftUpLeg  6.40782 -6.48502 0.732546
LeftLeg  17.0089 -3.17926 -0.756784
LeftFoot  -0.242532 1.29601 -13.2784
LeftToes  6.82088e-011 -2.45093e-011 5.71991e-013
443
root  4.37663 39.7399 13.4473 163.78 67.2919 161.642
RightUpLeg  -13.4855 -9.23692 -10.1282
RightLeg  12.2742 -6.16754 -2.31014
RightFoot  1.64627 -1.00051 8.87235
RightToes  -5.8209e-011 0 -3.6325e-017
Spine  2.54701 -4.63096 -3.00544
Spine1  19.0395 -8.29326 9.26431
HEad  -25.6429 -9.66527 -5.19606
LeftShoulder1  2.02695 -5.20956 -16.5572
LeftArm  11.9911 4.3018 -60.7118
LeftForeArm  3.58928 -65.8904 -26.2956
LeftHand  -1.2503 -0.966095 22.7951
RightShoulder  0.599014 -0.358199 12.0352
RightArm  -22.1534 6.63411 47.4411
RightForeArm  15.7991 49.5296 11.9778
RightHand  -0.978957 5.24147 -10.959
LeftUpLeg  6.30425 -6.30644 0.930743
LeftLeg  16.2039 -3.1319 -0.624791
LeftFoot  0.21595 1.36797 -13.4822
LeftToes  6.82088e-011 -2.45093e-011 5.71991e-013
444
root  4.44173 39.7703 13.5293 163.972 66.9525 161.531
RightUpLeg  -13.4964 -9.29943 -10.1393
RightLeg  11.9876 -6.40392 -2.29653
RightFoot  1.5767 -0.985619 8.78192
RightToes  -5.8209e-011 0 -3.6325e-017
Spine  2.68081 -4.56789 -2.68161
Spine1  18.9244 -8.08956 8.92738
HEad  -25.7674 -9.62749 -4.91124
LeftShoulder1  2.04519 -5.26424 -16.6259
LeftArm  12.1764 4.59701 -60.6585
LeftForeArm  3.57185 -65.7536 -26.0998
LeftHand  -1.24043 -0.927224 22.7547
RightShoulder  0.597165 -0.37792 12.1165
RightArm  -22.5455 7.10434 47.6707
RightForeArm  15.4528 52.2062 13.3045
RightHand  -1.00921 5.30725 -11.2206
LeftUpLeg  6.35187 -6.23521 0.948226
LeftLeg  15.4503 -3.02177 -0.434655
LeftFoot  0.585497 1.42113 -13.5886
LeftToes  6.82088e-011 -2.45093e-011 5.71991e-013
445
root  4.48976 39.792 13.5913 164.132 66.6058 161.414
RightUpLeg  -13.5062 -9.45373 -10.237
RightLeg  11.737 -6.59229 -2.22446
RightFoot  1.52681 -0.989778 8.84533
RightToes  -5.8209e-011 0 -3.6325e-017
Spine  2.76326 -4.57641 -2.42007
Spine1  18.9063 -7.96881 8.59636
HEad  -25.9887 -9.65329 -4.73938
LeftShoulder1  2.07952 -5.36108 -16.7703
LeftArm  12.3786 5.02003 -60.8319
LeftForeArm  3.55478 -65.5119 -25.7591
LeftHand  -1.26039 -1.03485 22.7364
RightShoulder  0.597703 -0.365013 12.095
RightArm  -22.7733 7.21657 48.3638
RightForeArm  15.0057 53.6971 14.1499
RightHand  -1.00319 5.32852 -11.1347
LeftUpLeg  6.34637 -6.16964 0.915249
LeftLeg  14.8528 -2.87531 -0.250269
LeftFoot  0.87248 1.46651 -13.7046
LeftToes  6.82088e-011 -2.45093e-011 5.71991e-013
446
root  4.52095 39.8124 13.6408 164.481 66.2423 161.475
RightUpLeg  -13.5532 -9.6471 -10.3355
RightLeg  11.528 -6.79813 -2.09983
RightFoot  1.28772 -1.02093 9.27336
RightToes  -5.8209e-011 0 -3.6325e-017
Spine  2.74393 -4.62406 -2.26611
Spine1  18.9777 -7.96847 8.44256
HEad  -26.247 -9.8412 -4.64459
LeftShoulder1  2.12248 -5.50143 -16.8917
LeftArm  12.7622 5.42633 -61.2601
LeftForeArm  3.18467 -65.137 -25.2876
LeftHand  -1.2916 -1.15818 22.8599
RightShoulder  0.600752 -0.342117 11.9866
RightArm  -22.7005 7.08974 49.3543
RightForeArm  14.4993 53.9505 14.3417
RightHand  -0.948061 5.22902 -10.6347
LeftUpLeg  6.21373 -6.01681 0.958873
LeftLeg  14.4263 -2.75667 -0.110039
LeftFoot  1.12091 1.50453 -13.7892
LeftToes  6.82088e-011 -2.45093e-011 5.71991e-013
447
root  4.53822 39.8323 13.6831 164.802 65.9923 161.564
RightUpLeg  -13.5815 -9.79537 -10.3915
RightLeg  11.3173 -6.92958 -1.94856
RightFoot  1.04108 -1.05601 9.76208
RightToes  -5.8209e-011 0 -3.6325e-017
Spine  2.79987 -4.61299 -2.25251
Spine1  18.9781 -7.9782 8.4583
HEad  -26.3566 -10.082 -4.71414
LeftShoulder1  2.16197 -5.6079 -17.0638
LeftArm  13.5973 5.72275 -61.7715
LeftForeArm  2.55586 -64.7426 -24.8372
LeftHand  -1.30471 -1.1664 23.0571
RightShoulder  0.611612 -0.285737 11.9909
RightArm  -22.2602 6.76069 50.2748
RightForeArm  13.6155 53.1146 13.9518
RightHand  -0.854865 5.05501 -9.77478
LeftUpLeg  6.09537 -5.65154 1.07119
LeftLeg  14.0764 -2.81415 -0.0284938
LeftFoot  1.338 1.52883 -13.7809
LeftToes  6.82088e-011 -2.45093e-011 5.71991e-013
448
root  4.54291 39.8428 13.7136 164.904 65.9285 161.553
RightUpLeg  -13.5943 -9.82848 -10.3967
RightLeg  11.1749 -6.93979 -1.86833
RightFoot  0.952933 -1.06965 9.96896
RightToes  -5.8209e-011 0 -3.6325e-017
Spine  3.00117 -4.54125 -2.24749
Spine1  18.9332 -7.90484 8.42482
HEad  -26.3029 -9.9944 -4.97554
LeftShoulder1  2.17564 -5.58349 -17.2965
LeftArm  14.86 5.92829 -62.2281
LeftForeArm  2.35757 -64.4356 -24.4646
LeftHand  -1.31127 -1.19968 23.0569
RightShoulder  0.642171 -0.160913 12.2145
RightArm  -21.5551 6.25797 50.9584
RightForeArm  12.3133 51.2801 13.0992
RightHand  -0.76652 4.92421 -8.90608
LeftUpLeg  6.14264 -5.15412 1.1893
LeftLeg  13.7003 -3.09615 0.00126935
LeftFoot  1.4171 1.53545 -13.7581
LeftToes  6.82088e-011 -2.45093e-011 5.71991e-013
449
root  4.53536 39.8381 13.7285 164.938 65.969 161.569
RightUpLeg  -13.6592 -9.74543 -10.3466
RightLeg  11.2245 -6.90439 -1.91179
RightFoot  0.798123 -1.07333 10.1205
RightToes  -5.8209e-011 0 -3.6325e-017
Spine  3.16833 -4.49039 -2.10667
Spine1  19.1076 -7.78866 8.20282
HEad  -26.3199 -9.32035 -5.21863
LeftShoulder1  2.15684 -5.45921 -17.4283
LeftArm  16.1421 6.04735 -62.6719
LeftForeArm  2.97517 -64.0736 -23.941
LeftHand  -1.33031 -1.42443 22.6398
RightShoulder  0.686759 0.0130118 12.5643
RightArm  -20.7795 5.67845 51.5531
RightForeArm  11.1084 48.4208 11.8504
RightHand  -0.723513 4.93108 -8.41928
LeftUpLeg  6.31443 -4.82041 1.28855
LeftLeg  13.321 -3.42934 0.0200029
LeftFoot  1.28265 1.52653 -13.8179
LeftToes  6.82088e-011 -2.45093e-011 5.71991e-013
